<svg xmlns="http://www.w3.org/2000/svg" viewBox="0 0 64 64">
  <rect width="64" height="64" fill="#F7F2EC"/>
  <path
    d="M31 8c-10.6 0-19 8.4-19 18.8 0 5.3 2.2 10 5.8 13.4L15 50l10-4.8c1.9.6 3.9.9 6 .9 10.7 0 19.4-8.4 19.4-19.3C50.4 16.3 41.7 8 31 8Z"
    fill="none"
    stroke="#5A3B21"
    stroke-linecap="round"
    stroke-linejoin="round"
    stroke-width="3"
  />
  <g fill="none" stroke="#5A3B21" stroke-linecap="round" stroke-linejoin="round" stroke-width="2.3">
    <path d="M22 21l2 4 2-4" />
    <path d="M30 21l2 4 2-4" />
    <path d="M38 21l2 4 2-4" />

    <path d="M22 28l2 4 2-4" />
    <path d="M30 28l2 4 2-4" />
    <path d="M38 28l2 4 2-4" />

    <path d="M22 35l2 4 2-4" />
    <path d="M30 35l2 4 2-4" />
    <path d="M38 35l2 4 2-4" />

    <path d="M30 42l2 4 2-4" />
  </g>
</svg>
